<?xml version="1.0" standalone="no"?>
<!DOCTYPE svg PUBLIC "-//W3C//DTD SVG 20010904//EN"
 "http://www.w3.org/TR/2001/REC-SVG-20010904/DTD/svg10.dtd">
<svg version="1.0" xmlns="http://www.w3.org/2000/svg"
 width="626.000000pt" height="626.000000pt" viewBox="0 0 626.000000 626.000000"
 preserveAspectRatio="xMidYMid meet">

<g transform="translate(0.000000,626.000000) scale(0.100000,-0.100000)"
fill="#000000" stroke="none">
<path d="M2275 5914 c-117 -27 -158 -41 -205 -67 -220 -121 -377 -363 -464
-712 -8 -33 -22 -121 -32 -195 -26 -208 -10 -592 36 -877 5 -35 15 -93 21
-130 15 -96 66 -313 96 -413 57 -191 179 -556 240 -718 36 -95 63 -175 61
-177 -4 -4 -98 146 -148 234 -8 14 -30 51 -49 81 -98 159 -359 654 -457 865
-34 76 -49 109 -110 258 -49 119 -145 402 -174 512 -53 201 -72 335 -73 510
-1 193 20 298 72 364 44 55 145 129 188 137 94 18 286 -21 402 -81 31 -15 32
-15 23 0 -36 65 -206 201 -305 245 -73 33 -185 46 -264 31 -87 -16 -135 -44
-209 -123 -104 -112 -145 -219 -166 -431 -27 -281 35 -633 187 -1054 49 -135
70 -189 150 -383 35 -85 238 -497 308 -625 81 -149 219 -390 262 -458 12 -18
63 -102 114 -187 52 -85 103 -168 114 -183 10 -16 18 -30 16 -32 -2 -2 -25 1
-51 5 -42 8 -109 2 -163 -15 -16 -4 -26 4 -50 41 -65 105 -278 305 -484 454
-201 147 -492 307 -644 355 -232 74 -388 -21 -387 -234 1 -87 27 -150 77 -185
80 -56 252 -45 317 21 23 22 26 34 26 89 0 55 -4 68 -27 94 -32 36 -97 54
-156 44 -34 -5 -38 -9 -33 -28 3 -11 6 -24 6 -28 0 -5 25 -8 55 -8 66 0 95
-22 95 -73 0 -45 -25 -65 -96 -79 -47 -8 -69 -8 -109 3 -65 19 -86 53 -88 147
-3 124 49 187 166 199 120 12 413 -129 727 -349 144 -101 207 -154 343 -287
115 -112 192 -205 182 -221 -3 -5 -48 5 -103 24 -199 69 -363 108 -642 153
-139 22 -199 26 -385 27 -202 1 -226 -1 -291 -21 -58 -18 -79 -31 -113 -68
-52 -57 -80 -117 -81 -171 0 -103 141 -264 232 -264 114 0 271 151 254 244 -8
44 -59 102 -102 116 -45 15 -109 -7 -154 -52 -36 -36 -37 -45 -5 -60 21 -9 29
-7 60 21 20 17 47 31 60 31 29 0 75 -46 75 -76 0 -37 -65 -110 -124 -139 -63
-31 -80 -28 -133 18 -97 85 -120 181 -60 258 18 24 47 51 64 62 44 25 169 46
278 46 137 1 498 -42 623 -73 31 -8 75 -17 97 -21 95 -16 386 -106 386 -119 0
-3 -9 -32 -21 -64 -67 -176 44 -368 233 -402 49 -9 94 -3 182 25 17 5 28 -3
55 -42 19 -26 86 -118 149 -203 63 -85 146 -198 184 -250 162 -219 183 -248
229 -300 26 -30 73 -75 104 -100 30 -25 61 -49 67 -55 12 -10 100 -68 150 -99
197 -121 562 -267 817 -328 106 -24 261 -31 281 -11 18 18 4 55 -45 119 -60
80 -146 168 -236 244 -97 82 -102 92 -33 65 45 -17 503 -160 653 -204 434
-126 959 -231 1155 -231 100 0 251 33 338 74 220 103 348 264 418 526 19 69
23 112 23 230 0 169 -21 276 -86 425 -37 87 -38 92 -29 153 9 59 8 67 -30 175
-103 287 -227 469 -421 614 -137 103 -425 188 -675 200 -68 3 -123 8 -123 11
0 3 10 19 23 36 109 147 219 429 253 651 45 296 24 506 -71 702 -76 156 -195
258 -360 309 -87 27 -299 25 -415 -4 -191 -47 -478 -181 -676 -316 -28 -19
-40 -22 -45 -13 -3 6 -12 55 -18 107 -39 296 -148 655 -281 920 -193 387 -468
654 -760 742 -63 18 -224 32 -265 22z m234 -290 c205 -77 391 -272 552 -581
121 -232 210 -522 263 -858 17 -107 46 -428 46 -507 0 -27 2 -48 5 -48 2 0 82
55 177 123 309 220 459 309 649 385 142 57 234 77 349 77 96 0 110 -2 163 -29
97 -50 149 -120 187 -257 41 -150 36 -344 -16 -554 -67 -273 -175 -455 -433
-734 -92 -100 -273 -272 -375 -356 -26 -22 -66 -57 -89 -77 -44 -39 -201 -166
-257 -208 -18 -14 -59 -45 -90 -70 -143 -113 -391 -290 -638 -457 l-183 -124
-57 46 c-31 25 -61 49 -67 53 -5 5 -44 34 -86 66 l-77 58 -27 101 c-43 162
-84 285 -125 377 -21 47 -52 135 -70 195 -18 61 -43 146 -56 190 -120 401
-222 809 -289 1155 -109 565 -134 737 -142 1000 -6 207 3 322 38 482 68 310
239 541 428 579 55 11 149 -1 220 -27z m2242 -3139 c44 -12 69 -13 101 -5 153
35 511 -36 658 -131 68 -44 173 -146 197 -192 l15 -29 -59 30 c-94 50 -175 80
-275 104 -126 30 -420 32 -578 5 -115 -20 -306 -68 -385 -96 -121 -44 -120
-43 70 146 99 98 184 180 189 181 4 1 34 -5 67 -13z m519 -466 c235 -37 471
-193 594 -391 137 -221 169 -505 81 -713 -64 -150 -189 -252 -350 -285 -66
-14 -382 -8 -536 10 -46 6 -124 15 -174 20 -159 18 -732 115 -795 135 -9 3
-90 20 -180 40 -91 19 -214 46 -275 60 -60 15 -139 33 -175 41 -67 15 -101 34
-302 177 -54 38 -98 73 -98 77 0 8 232 158 350 226 580 334 1044 522 1480 599
92 16 293 18 380 4z m-3088 -101 c59 -63 162 -208 153 -216 -2 -3 -42 20 -87
50 -46 30 -104 67 -129 83 l-45 28 14 46 c9 25 17 52 18 59 5 21 15 14 76 -50z"/>
<path d="M2633 3570 c-271 -64 -195 -749 206 -1860 10 -30 23 -56 28 -57 5 -2
54 27 109 63 476 318 793 621 917 874 39 80 42 90 42 175 0 79 -3 96 -27 142
-41 76 -125 159 -179 174 -63 18 -155 14 -215 -8 -71 -27 -179 -100 -253 -169
-35 -32 -66 -60 -70 -62 -4 -1 -18 50 -30 115 -50 259 -149 477 -254 557 -78
60 -175 80 -274 56z"/>
<path d="M4170 1601 c-47 -10 -121 -31 -165 -46 -86 -30 -388 -171 -445 -209
-219 -143 -230 -151 -215 -162 18 -13 353 -132 475 -168 261 -77 467 -113 602
-103 180 12 328 137 373 315 41 161 -46 297 -234 364 -82 29 -277 34 -391 9z"/>
</g>
</svg>
